<svg id="Layer_1" data-name="Layer 1" xmlns="http://www.w3.org/2000/svg" viewBox="0 0 1669.16 1078"><defs><style>.cls-1{fill:#fff;}</style></defs><path class="cls-1" d="M0,1078V0H1669.16V1078ZM940.41,645.58c0-25.29.61-49-.15-72.66-1-32.7,12.66-58.63,33.47-82.59,12.25-14.1,23.62-29.5,32.47-45.89,16.15-29.95,22.87-62.42,21.45-96.84-.92-22-4.64-43.1-12.45-63.41-12.62-32.81-31.83-60.93-59.24-83.63C924.69,174.65,888.9,159.39,849,155.4c-30.6-3.07-61.08.28-90.36,11.68-45.13,17.56-79.94,47-103.88,88.92-21.82,38.22-29.39,79.3-23.57,123.13,5.91,44.53,24.58,82.59,55.34,114.94,19.31,20.3,30.43,43.83,30,72.29-.2,14.94,0,29.89,0,45.16Zm139,349.07c1.75,6.8,3.28,13.82,5.4,20.67,2.21,7.13,4.42,14.36,7.65,21,8.4,17.4,22.77,25,41.82,22.12,14.86-2.27,25.39-11.35,31.9-24.34,18.12-36.15,16.88-74.22,9.71-112.64-.61-3.27-2.15-7.25-4.61-9s-6.74-1.89-9.93-1.26c-1.42.27-3.35,4.41-3,6.39,5.16,26.46,4.6,53.09,1.24,79.53a178.3,178.3,0,0,1-10.54,41.62c-4.67,12.06-15.79,15.74-27.29,11.35a33.28,33.28,0,0,1-21.19-24.72c-3.91-18.25-6.57-36.82-8.79-55.38-1.76-14.77-2.09-29.72-3-44.3-9.29-1.3-13.74,2.39-15.22,9.63-2.66,13-4.57,26.19-7.59,39.11-4.65,19.88-9.16,39.87-15.33,59.3-3.35,10.55-10.38,20.51-23.63,19.28s-16.22-12.47-18.74-23c-5.85-24.64-3.79-49.47-.93-74.23,1.78-15.41,4-30.77,6-46.09-9.83-1.89-13.56,0-14.76,8.48-3.37,23.71-7.65,47.41-9,71.27a179.13,179.13,0,0,0,4.35,49.76c4.35,18.76,20.28,26.08,39.15,21.38,13.56-3.37,23.33-11.79,29.11-24C1068.6,1023.07,1073.61,1009,1079.41,994.65Zm-340-354.53c-10.25-.16-17.5,6-18.93,14.88-1.2,7.47,4.12,15.21,12.42,17.45,4.16,1.12,8.51,1.5,12.77,2.28q84.66,15.49,169.33,31c11.55,2.1,19.67-2.85,21.76-12.83,2-9.52-4.25-17.69-15.72-19.8Q859,661.66,796.81,650.51Zm-4.71,57c-3,2.34-9.08,5.16-12.07,9.94-6.42,10.3.76,21.63,14.53,24.28,12.17,2.33,24.39,4.38,36.58,6.6q71.44,13,142.9,26a17.29,17.29,0,0,0,18.58-9.6c5.17-11.4-1.15-21.36-15.25-23.92q-66.36-12.06-132.72-24.06C770.79,703.46,754.3,700.62,734.7,697.17ZM452,926.83l3.4.82V1058c11.51.72,13.32-.65,13.36-9.8.19-44,.37-88,.24-131.94,0-3.87-2.28-7.74-3.5-11.61-4.37,1.7-10,2.23-12.86,5.33a318.8,318.8,0,0,0-22.45,28.6c-9.07,12.66-17.45,25.8-26.43,38.53-4,5.62-8.77,6.1-13.54.53-2.64-3.07-5.63-5.87-8-9.11-9.1-12.34-17.7-25.06-27.13-37.13a175,175,0,0,0-19.51-20.78c-1.93-1.78-6.78-2.11-9.3-1-1.64.76-2.16,5.45-2,8.32.74,13.84,2.69,27.67,2.73,41.5.08,30.39-.78,60.78-1.13,91.17-.08,7.55,3,9.66,9.41,5.9a11.18,11.18,0,0,0,4.66-8c.6-33,.78-66,1.06-99,0-5.3,0-10.6,0-15.9,5.82,6.24,9.86,13.14,14.47,19.63,8.36,11.77,16.32,24,25.85,34.74,9.95,11.25,18.55,10.95,28.78.17a163.41,163.41,0,0,0,17.07-21.76C435.78,953.43,443.74,940,452,926.83ZM143.74,1058c11.71.7,13.53-.42,13.63-11.86q.56-65.54.13-131.08c0-3.52-2.31-9.79-4.05-10-3.68-.38-8.83,1.36-11.37,4.1a258.35,258.35,0,0,0-21.26,26.19c-8.7,12.23-16.16,25.36-25,37.45-8.76,11.9-11.73,11.75-21,.56-6.28-7.56-11.77-15.76-17.87-23.47-10-12.67-20-25.45-30.66-37.54-2.23-2.52-7.6-2.27-11.52-3.3-.63,3.45-1.87,6.92-1.78,10.36.69,25.72,2,51.43,2.4,77.16.26,18.22-.54,36.46-1.18,54.69-.24,7,2.78,7.86,8.53,6,7.74-2.53,6-9.15,6.1-14.5.36-33.32.39-66.64.52-100,0-3,0-6,0-9,4,3,6.11,6.31,8.36,9.54,9.92,14.21,19.09,29,30,42.42,11.5,14.08,21.28,14,33,.32,8.24-9.59,14.89-20.56,22-31.1,6.28-9.35,12.15-19,18.21-28.46l2.85,1ZM690,1009.94c7.26,3.29,13.91,5.26,19.36,9,13.1,9,25.66,18.78,38.41,28.29,14.4,10.75,30.25,17.1,48.44,14.38,3.24-.49,5.91-4.77,8.85-7.29-3.4-1.22-7-3.83-10.15-3.4-10.23,1.41-20.15.22-28.22-5.64-15.72-11.43-30.59-24-47.19-37.23,3.53-.84,5.08-1.27,6.65-1.58,17.42-3.45,34.12-8.82,48.12-20.21,22.32-18.15,22.58-49.24-.25-63.52-26.43-16.53-55.37-18.38-85.13-10.42-8.4,2.25-12.19,8.1-12.2,16.71,0,8.39-.42,16.79-.41,25.18.06,33.24.09,66.48.44,99.71.07,6,4.74,8.09,9,4.12,2.38-2.2,3.95-6.38,4.08-9.73C690.25,1036.22,690,1024.12,690,1009.94Zm705.92.1c7.12,3.21,13.53,5.05,18.73,8.64,13.78,9.51,27,19.85,40.5,29.73,14,10.23,29.54,16,47.05,13.1,3.2-.53,5.77-4.92,8.63-7.53-3.18-1.13-6.59-3.62-9.52-3.15-11.52,1.86-22.36-.25-31.34-6.88-14.91-11-28.87-23.33-43.17-35.05.87-1.15,1-1.5,1.2-1.56,1.1-.32,2.2-.63,3.32-.84,18.65-3.51,36.43-9.2,50.82-22.22,21.29-19.26,19.27-49.46-4.62-63.09-25.85-14.75-53.68-16.48-82.13-9.25-9.59,2.43-12.56,7.56-12.8,17.94-.23,10.12-1,20.22-1,30.33q.08,46.37.75,92.72c0,2.3,2.26,4.56,3.47,6.83,3-1.8,6.84-3,8.75-5.6,1.62-2.22,1.29-6.06,1.33-9.19C1396,1034,1395.88,1023.11,1395.88,1010Zm129.2,15c0,5.59.5,12.87-.13,20-.71,8.13,1.45,12.62,12.75,13.37a238.09,238.09,0,0,0,32.93,0c24.59-1.77,46.84-9.66,64.79-27.37,27.78-27.39,28.61-73.55,2.21-99.91-26.65-26.6-73.21-26.24-100.66-14-5.53,2.46-8.82,6.78-9,13.55C1527.23,961.55,1526.12,992.46,1525.08,1025ZM497.94,990.28c-.1,41.58,29.55,71.55,70.6,71.39,44.81-.17,79.71-34.19,79.64-77.63-.06-40.37-31.78-70.08-75.31-70.53C529.55,913.06,498.05,945.33,497.94,990.28Zm705.65-.3c-.8,40.52,28.37,71.38,69.49,71.48,42,.1,79.05-26.83,80.6-75.37,1.33-41.55-29.79-72.29-74.7-72.31C1238,913.76,1205,939,1203.59,990ZM208.66,1046.1V990.81c6.49,0,11.39,0,16.28,0,12.71.15,25.41.62,38.11.39,5.22-.1,12.26.35,12.66-6.91.08-1.45-8.64-4.65-13.4-4.86-15-.68-30.13-.32-45.19-.35-6.21,0-9.41-2.14-8.86-9.32,1-13.26,1.5-26.58,1.54-39.88,0-6.89,2.49-8.88,9.26-8.76,22.29.38,44.6.19,66.9.12,6.2,0,12.33-.47,13.8-10-5.4-1-10.62-2.84-15.88-2.92q-31.28-.46-62.56.1c-5.69.1-11.8,1-16.86,3.32-3.36,1.56-7.27,6.31-7.42,9.78q-2.46,57.24-3.64,114.54c-.4,18.9,2.91,21.82,21.88,22.54q3,.12,6.09.05c22.57-.58,45.15-.86,67.69-2.06,4.39-.23,12.21-4.06,12.21-6.22,0-7.75-7.51-6.42-12.56-6.31-15,.34-30,1.55-45.08,2C231.61,1046.37,219.58,1046.1,208.66,1046.1ZM828.33,806.53c17.64,0,35.29,0,52.93,0,10.6,0,18.08-6.43,18.29-15.47.23-9.6-6.3-17.35-16.49-17.45q-54.21-.48-108.44.12c-10.74.13-16.73,7.34-16.3,17.2.41,9.55,7.25,15.57,17.94,15.6C793.62,806.57,811,806.53,828.33,806.53ZM523.51,284.91c23.7,0,41.51-17.25,41.55-40.34.05-22.88-17.76-41.36-40-41.49-23.28-.15-41.45,17.7-41.47,40.76C483.57,267.14,500.8,284.88,523.51,284.91ZM878.28,56.27c0,23.74,17.18,41.31,40.5,41.33,22.57,0,40.66-17.46,40.75-39.39.11-24.33-17.15-42.33-40.58-42.33C896,15.88,878.31,33.46,878.28,56.27ZM1064,190.65A41,41,0,0,0,1104.24,232c21.44.54,40.93-18.21,41.32-39.75.41-22.78-18-42-40.53-42.4C1083,149.51,1064.29,168.13,1064,190.65Zm5.57,428.41c22.74-.14,41-18.35,40.84-40.76-.14-22.61-19-41-41.82-40.8-22.07.22-40.88,19.48-40.4,41.35A40.71,40.71,0,0,0,1069.6,619.06ZM843.77,1059.68c7.57,4.18,11.5-.6,14.06-5.2,7-12.57,13.77-25.31,19.56-38.46,12.65-28.72,24.46-57.82,37-86.57,2.76-6.31,7.34-11.82,11.32-18.07-8.83-1.64-15.57,1.14-19.56,7.74A366.57,366.57,0,0,0,887.44,954c-5.38,11.55-9.52,23.67-14.61,36.57-19.4-19.89-35.44-40.07-45.68-64.42-1.9-4.52-3.63-9.4-6.73-13-1.9-2.22-6.52-3.6-9.38-3-1.79.4-4.1,5.61-3.53,8.05,1.41,6.09,3.23,12.62,6.83,17.56,15.45,21.18,31.44,42,47.65,62.59,3.26,4.14,4.43,7,2.17,12.15C857.07,1026.59,850.65,1042.94,843.77,1059.68ZM717,107.26,738.87,87,719.53,69.87l19.18-15.39-20-21.8L700.09,50.42,685.67,33.53,664.25,53.24l17.33,18.29-18.41,15L685.89,109l14.8-19.67ZM552.63,543.12l23-20.73-18.1-15.82,14.93-15.91c-6.33-7.87-11.89-14.79-17.39-21.65L535,487.43q-7.77-10.05-14.3-18.46l-22.57,21.52L519.91,506l-20.32,17.1,22.49,22,14.68-19.25Zm607.71-119,21.1-21.34L1164,384.14l17.57-14.91-21.45-21.91c-5.15,5.76-10.43,11.68-16,17.9L1129,349.32l-23.44,20.89L1124,385.72l-16,17.09c6.68,6.74,12.92,13,20.32,20.47l16.49-19.67Z"/><path d="M940.41,645.58,716.58,611.52c0-15.27-.16-30.22,0-45.16.38-28.46-10.74-52-30-72.29-30.76-32.35-49.43-70.41-55.34-114.94C625.41,335.3,633,294.22,654.8,256c23.94-41.92,58.75-71.36,103.88-88.92C788,155.68,818.44,152.33,849,155.4c39.86,4,75.65,19.25,106.92,45.16,27.41,22.7,46.62,50.82,59.24,83.63,7.81,20.31,11.53,41.43,12.45,63.41,1.42,34.42-5.3,66.89-21.45,96.84-8.85,16.39-20.22,31.79-32.47,45.89-20.81,24-34.51,49.89-33.47,82.59C941,596.58,940.41,620.29,940.41,645.58ZM750.68,582.45l154.48,23.34c1-20.17.74-38.69,2.92-56.92,3.28-27.52,15.17-51.38,33.45-72.49,12.27-14.17,24.76-28.8,33.67-45.13,17.95-32.95,22.5-68.74,16.22-106-5.75-34.05-21.28-63.05-45.06-87.46C932,223.1,915,211.88,896,203c-31.73-14.87-64.92-17.43-98.18-11.32-40.32,7.4-73.63,28.5-99.08,61.16-28.91,37.09-39.66,78.9-33.2,125.45,5.17,37.29,21.71,68.55,48.13,95,13.07,13.1,21.93,28.9,28.61,46.12C750,539.35,751.8,560,750.68,582.45Z"/><path d="M1079.41,994.65c-5.8,14.31-10.81,28.42-17.17,41.89-5.78,12.23-15.55,20.65-29.11,24-18.87,4.7-34.8-2.62-39.15-21.38a179.13,179.13,0,0,1-4.35-49.76c1.34-23.86,5.62-47.56,9-71.27,1.2-8.45,4.93-10.37,14.76-8.48-2,15.32-4.25,30.68-6,46.09-2.86,24.76-4.92,49.59.93,74.23,2.52,10.57,5.64,21.82,18.74,23,13.25,1.23,20.28-8.73,23.63-19.28,6.17-19.43,10.68-39.42,15.33-59.3,3-12.92,4.93-26.1,7.59-39.11,1.48-7.24,5.93-10.93,15.22-9.63.94,14.58,1.27,29.53,3,44.3,2.22,18.56,4.88,37.13,8.79,55.38a33.28,33.28,0,0,0,21.19,24.72c11.5,4.39,22.62.71,27.29-11.35a178.3,178.3,0,0,0,10.54-41.62c3.36-26.44,3.92-53.07-1.24-79.53-.39-2,1.54-6.12,3-6.39,3.19-.63,7.49-.51,9.93,1.26s4,5.76,4.61,9c7.17,38.42,8.41,76.49-9.71,112.64-6.51,13-17,22.07-31.9,24.34-19,2.9-33.42-4.72-41.82-22.12-3.23-6.69-5.44-13.92-7.65-21C1082.69,1008.47,1081.16,1001.45,1079.41,994.65Z"/><path d="M739.41,640.12l57.4,10.39Q858.93,661.78,921,673.09c11.47,2.11,17.71,10.28,15.72,19.8-2.09,10-10.21,14.93-21.76,12.83q-84.68-15.4-169.33-31c-4.26-.78-8.61-1.16-12.77-2.28-8.3-2.24-13.62-10-12.42-17.45C721.91,646.12,729.16,640,739.41,640.12Z"/><path d="M734.7,697.17c19.6,3.45,36.09,6.29,52.55,9.27q66.38,12,132.72,24.06c14.1,2.56,20.42,12.52,15.25,23.92a17.29,17.29,0,0,1-18.58,9.6q-71.48-12.91-142.9-26c-12.19-2.22-24.41-4.27-36.58-6.6-13.77-2.65-20.95-14-14.53-24.28C725.62,702.33,731.74,699.51,734.7,697.17Z"/><path d="M452,926.83c-8.25,13.21-16.21,26.6-24.84,39.55a163.41,163.41,0,0,1-17.07,21.76c-10.23,10.78-18.83,11.08-28.78-.17-9.53-10.78-17.49-23-25.85-34.74-4.61-6.49-8.65-13.39-14.47-19.63,0,5.3,0,10.6,0,15.9-.28,33-.46,66-1.06,99a11.18,11.18,0,0,1-4.66,8c-6.37,3.76-9.49,1.65-9.41-5.9.35-30.39,1.21-60.78,1.13-91.17,0-13.83-2-27.66-2.73-41.5-.16-2.87.36-7.56,2-8.32,2.52-1.16,7.37-.83,9.3,1a175,175,0,0,1,19.51,20.78c9.43,12.07,18,24.79,27.13,37.13,2.39,3.24,5.38,6,8,9.11,4.77,5.57,9.58,5.09,13.54-.53,9-12.73,17.36-25.87,26.43-38.53A318.8,318.8,0,0,1,452.63,910c2.82-3.1,8.49-3.63,12.86-5.33,1.22,3.87,3.49,7.74,3.5,11.61.13,44-.05,88-.24,131.94,0,9.15-1.85,10.52-13.36,9.8V927.65Z"/><path d="M143.74,1058V927.6l-2.85-1c-6.06,9.5-11.93,19.11-18.21,28.46-7.07,10.54-13.72,21.51-22,31.1-11.76,13.7-21.54,13.76-33-.32-10.93-13.39-20.1-28.21-30-42.42-2.25-3.23-4.39-6.54-8.36-9.54,0,3,0,6,0,9-.13,33.32-.16,66.64-.52,100-.06,5.35,1.64,12-6.1,14.5-5.75,1.88-8.77,1-8.53-6,.64-18.23,1.44-36.47,1.18-54.69-.37-25.73-1.71-51.44-2.4-77.16-.09-3.44,1.15-6.91,1.78-10.36,3.92,1,9.29.78,11.52,3.3,10.7,12.09,20.63,24.87,30.66,37.54,6.1,7.71,11.59,15.91,17.87,23.47,9.29,11.19,12.26,11.34,21-.56,8.89-12.09,16.35-25.22,25-37.45a258.35,258.35,0,0,1,21.26-26.19c2.54-2.74,7.69-4.48,11.37-4.1,1.74.19,4,6.46,4.05,10q.33,65.54-.13,131.08C157.27,1057.58,155.45,1058.7,143.74,1058Z"/><path d="M690,1009.94c0,14.18.29,26.28-.19,38.36-.13,3.35-1.7,7.53-4.08,9.73-4.27,4-8.94,1.84-9-4.12-.35-33.23-.38-66.47-.44-99.71,0-8.39.39-16.79.41-25.18,0-8.61,3.8-14.46,12.2-16.71,29.76-8,58.7-6.11,85.13,10.42,22.83,14.28,22.57,45.37.25,63.52-14,11.39-30.7,16.76-48.12,20.21-1.57.31-3.12.74-6.65,1.58,16.6,13.2,31.47,25.8,47.19,37.23,8.07,5.86,18,7,28.22,5.64,3.17-.43,6.75,2.18,10.15,3.4-2.94,2.52-5.61,6.8-8.85,7.29-18.19,2.72-34-3.63-48.44-14.38-12.75-9.51-25.31-19.3-38.41-28.29C703.87,1015.2,697.22,1013.23,690,1009.94Zm.15-11.7c23.78-2.15,47.71-4,68.95-16.63,10.56-6.28,16.7-15.85,16.07-28.72-.62-12.63-7.71-20.92-18.73-25.9-17.08-7.72-35-8.6-53.42-6.4-8.2,1-13,2.61-11.92,12.28.65,5.64-.84,11.5-.89,17.26C690,965.93,690.11,981.74,690.11,998.24Z"/><path d="M1395.88,1010c0,13.07.08,24-.05,34.93,0,3.13.29,7-1.33,9.19-1.91,2.61-5.75,3.8-8.75,5.6-1.21-2.27-3.44-4.53-3.47-6.83q-.67-46.35-.75-92.72c0-10.11.79-20.21,1-30.33.24-10.38,3.21-15.51,12.8-17.94,28.45-7.23,56.28-5.5,82.13,9.25,23.89,13.63,25.91,43.83,4.62,63.09-14.39,13-32.17,18.71-50.82,22.22-1.12.21-2.22.52-3.32.84-.2.06-.33.41-1.2,1.56,14.3,11.72,28.26,24,43.17,35.05,9,6.63,19.82,8.74,31.34,6.88,2.93-.47,6.34,2,9.52,3.15-2.86,2.61-5.43,7-8.63,7.53-17.51,2.88-33-2.87-47.05-13.1-13.52-9.88-26.72-20.22-40.5-29.73C1409.41,1015.09,1403,1013.25,1395.88,1010Zm.23-11.69c6-.63,11.73-1.13,17.42-1.84,18.71-2.37,37.37-5.28,53.28-16.38,20.89-14.59,18.92-41.15-3.75-52.64-15.46-7.84-32.21-9.5-49-7.37-20.28,2.58-17.41-.68-17.6,19.17,0,1.73-.3,3.46-.3,5.2C1396.1,962.07,1396.11,979.65,1396.11,998.35Z"/><path d="M1525.08,1025c1-32.56,2.15-63.47,2.91-94.4.16-6.77,3.45-11.09,9-13.55,27.45-12.19,74-12.55,100.66,14,26.4,26.36,25.57,72.52-2.21,99.91-18,17.71-40.2,25.6-64.79,27.37a238.09,238.09,0,0,1-32.93,0c-11.3-.75-13.46-5.24-12.75-13.37C1525.58,1037.89,1525.08,1030.61,1525.08,1025Zm13.94,5.33a25.09,25.09,0,0,1,0,3.67c-.76,7.62,1.47,12.17,10.3,11.76,11.78-.54,23.73.68,35.35-.85,39.7-5.23,63.17-36,56.56-73.55-7.65-43.46-54.93-64.48-94.89-43.77-1.92,1-3.56,4.39-3.66,6.73C1541.29,965.82,1540.22,997.32,1539,1030.35Z"/><path d="M497.94,990.28c.11-44.95,31.61-77.22,74.93-76.77,43.53.45,75.25,30.16,75.31,70.53.07,43.44-34.83,77.46-79.64,77.63C527.49,1061.83,497.84,1031.86,497.94,990.28Zm73.61-64c-36.69-.08-59.55,24.61-59.92,64.71-.34,35.41,22,59.31,55.62,59.43,39.13.14,65.9-25.69,65.92-63.61C633.19,951.05,608.08,926.38,571.55,926.31Z"/><path d="M1203.59,990c1.45-51,34.44-76.22,75.39-76.2,44.91,0,76,30.76,74.7,72.31-1.55,48.54-38.62,75.47-80.6,75.37C1232,1061.36,1202.79,1030.5,1203.59,990Zm74.14-63.66c-36.83-.17-60.08,24.63-60.36,64.38-.25,35.69,21.89,59.56,55.43,59.74,38.76.22,66-25.45,66.24-62.41C1339.27,951.49,1314.44,926.49,1277.73,926.32Z"/><path d="M208.66,1046.1c10.92,0,23,.27,35-.08,15-.43,30.05-1.64,45.08-2,5.05-.11,12.56-1.44,12.56,6.31,0,2.16-7.82,6-12.21,6.22-22.54,1.2-45.12,1.48-67.69,2.06q-3,.07-6.09-.05c-19-.72-22.28-3.64-21.88-22.54q1.22-57.28,3.64-114.54c.15-3.47,4.06-8.22,7.42-9.78,5.06-2.36,11.17-3.22,16.86-3.32q31.27-.58,62.56-.1c5.26.08,10.48,1.88,15.88,2.92-1.47,9.56-7.6,10-13.8,10-22.3.07-44.61.26-66.9-.12-6.77-.12-9.24,1.87-9.26,8.76,0,13.3-.51,26.62-1.54,39.88-.55,7.18,2.65,9.3,8.86,9.32,15.06,0,30.15-.33,45.19.35,4.76.21,13.48,3.41,13.4,4.86-.4,7.26-7.44,6.81-12.66,6.91-12.7.23-25.4-.24-38.11-.39-4.89-.06-9.79,0-16.28,0Z"/><path d="M828.33,806.53c-17.36,0-34.71,0-52.07,0-10.69,0-17.53-6-17.94-15.6-.43-9.86,5.56-17.07,16.3-17.2q54.21-.65,108.44-.12c10.19.1,16.72,7.85,16.49,17.45-.21,9-7.69,15.44-18.29,15.47C863.62,806.56,846,806.53,828.33,806.53Z"/><path d="M523.51,284.91c-22.71,0-39.94-17.77-39.91-41.07,0-23.06,18.19-40.91,41.47-40.76,22.23.13,40,18.61,40,41.49C565,267.66,547.21,285,523.51,284.91Zm.5-22.14c10.26.11,18.54-7.61,18.74-17.49C543,234,535,225.69,524.14,225.77a18.5,18.5,0,0,0-.13,37Z"/><path d="M878.28,56.27c0-22.81,17.72-40.39,40.67-40.39,23.43,0,40.69,18,40.58,42.33-.09,21.93-18.18,39.41-40.75,39.39C895.46,97.58,878.25,80,878.28,56.27Zm59.12.54c-.17-10.28-9-19-18.85-18.76s-18.44,9.31-18.13,19.45c.34,10.64,8.4,18.06,19.3,17.75A17.89,17.89,0,0,0,937.4,56.81Z"/><path d="M1064,190.65c.26-22.52,19-41.14,41-40.76,22.56.39,40.94,19.62,40.53,42.4-.39,21.54-19.88,40.29-41.32,39.75A41,41,0,0,1,1064,190.65Zm41.34,18.6A18.07,18.07,0,0,0,1123.42,192c.27-10-8.62-19.41-18.24-19.26s-18.45,8.69-18.66,18.11C1086.3,200.66,1095.05,209.22,1105.37,209.25Z"/><path d="M1069.6,619.06a40.71,40.71,0,0,1-41.38-40.21c-.48-21.87,18.33-41.13,40.4-41.35,22.8-.23,41.68,18.19,41.82,40.8C1110.59,600.71,1092.34,618.92,1069.6,619.06Zm-18.81-40.69a18.49,18.49,0,0,0,37,.56c.07-10.3-8.25-19.07-18.26-19.23S1050.79,568.31,1050.79,578.37Z"/><path d="M843.77,1059.68c6.88-16.74,13.3-33.09,20.39-49.16,2.26-5.12,1.09-8-2.17-12.15-16.21-20.61-32.2-41.41-47.65-62.59-3.6-4.94-5.42-11.47-6.83-17.56-.57-2.44,1.74-7.65,3.53-8.05,2.86-.63,7.48.75,9.38,3,3.1,3.61,4.83,8.49,6.73,13,10.24,24.35,26.28,44.53,45.68,64.42,5.09-12.9,9.23-25,14.61-36.57a366.57,366.57,0,0,1,18.75-34.88c4-6.6,10.73-9.38,19.56-7.74-4,6.25-8.56,11.76-11.32,18.07-12.58,28.75-24.39,57.85-37,86.57-5.79,13.15-12.58,25.89-19.56,38.46C855.27,1059.08,851.34,1063.86,843.77,1059.68Z"/><path d="M717,107.26l-16.31-18L685.89,109l-22.72-22.4,18.41-15L664.25,53.24l21.42-19.71,14.42,16.89,18.66-17.74,20,21.8L719.53,69.87,738.87,87Z"/><path d="M552.63,543.12l-15.87-17.29-14.68,19.25-22.49-22L519.91,506l-21.8-15.46L520.68,469q6.52,8.43,14.3,18.46L555.05,469c5.5,6.86,11.06,13.78,17.39,21.65l-14.93,15.91,18.1,15.82Z"/><path d="M1160.34,424.11l-15.52-20.5-16.49,19.67c-7.4-7.44-13.64-13.73-20.32-20.47l16-17.09-18.44-15.51L1129,349.32l15.14,15.9c5.57-6.22,10.85-12.14,16-17.9l21.45,21.91L1164,384.14l17.43,18.63Z"/><path class="cls-1" d="M750.68,582.45c1.12-22.46-.64-43.1-8.37-63-6.68-17.22-15.54-33-28.61-46.12-26.42-26.48-43-57.74-48.13-95-6.46-46.55,4.29-88.36,33.2-125.45,25.45-32.66,58.76-53.76,99.08-61.16,33.26-6.11,66.45-3.55,98.18,11.32,18.94,8.89,36,20.11,50.33,34.84,23.78,24.41,39.31,53.41,45.06,87.46,6.28,37.22,1.73,73-16.22,106-8.91,16.33-21.4,31-33.67,45.13-18.28,21.11-30.17,45-33.45,72.49-2.18,18.23-2,36.75-2.92,56.92Z"/><path class="cls-1" d="M690.11,998.24c0-16.5-.09-32.31.06-48.11.05-5.76,1.54-11.62.89-17.26-1.11-9.67,3.72-11.3,11.92-12.28,18.45-2.2,36.34-1.32,53.42,6.4,11,5,18.11,13.27,18.73,25.9.63,12.87-5.51,22.44-16.07,28.72C737.82,994.25,713.89,996.09,690.11,998.24Z"/><path class="cls-1" d="M1396.11,998.35c0-18.7,0-36.28,0-53.86,0-1.74.28-3.47.3-5.2.19-19.85-2.68-16.59,17.6-19.17,16.82-2.13,33.57-.47,49,7.37,22.67,11.49,24.64,38,3.75,52.64-15.91,11.1-34.57,14-53.28,16.38C1407.84,997.22,1402.12,997.72,1396.11,998.35Z"/><path class="cls-1" d="M1539,1030.35c1.2-33,2.27-64.53,3.64-96,.1-2.34,1.74-5.73,3.66-6.73,40-20.71,87.24.31,94.89,43.77,6.61,37.55-16.86,68.32-56.56,73.55-11.62,1.53-23.57.31-35.35.85-8.83.41-11.06-4.14-10.3-11.76A25.09,25.09,0,0,0,1539,1030.35Z"/><path class="cls-1" d="M571.55,926.31c36.53.07,61.64,24.74,61.62,60.53,0,37.92-26.79,63.75-65.92,63.61-33.58-.12-56-24-55.62-59.43C512,950.92,534.86,926.23,571.55,926.31Z"/><path class="cls-1" d="M1277.73,926.32c36.71.17,61.54,25.17,61.31,61.71-.23,37-27.48,62.63-66.24,62.41-33.54-.18-55.68-24-55.43-59.74C1217.65,951,1240.9,926.15,1277.73,926.32Z"/><path class="cls-1" d="M524,262.77a18.5,18.5,0,0,1,.13-37C535,225.69,543,234,542.75,245.28,542.55,255.16,534.27,262.88,524,262.77Z"/><path class="cls-1" d="M937.4,56.81a17.89,17.89,0,0,1-17.68,18.44c-10.9.31-19-7.11-19.3-17.75-.31-10.14,8.11-19.18,18.13-19.45S937.23,46.53,937.4,56.81Z"/><path class="cls-1" d="M1105.37,209.25c-10.32,0-19.07-8.59-18.85-18.44.21-9.42,9-18,18.66-18.11s18.51,9.23,18.24,19.26A18.07,18.07,0,0,1,1105.37,209.25Z"/><path class="cls-1" d="M1050.79,578.37c0-10.06,8.78-18.83,18.71-18.67s18.33,8.93,18.26,19.23a18.49,18.49,0,0,1-37-.56Z"/></svg>